<svg xmlns="http://www.w3.org/2000/svg" viewBox="0 0 512 512">
  <rect width="512" height="512" rx="72" fill="#0a0604"/>
  <circle cx="256" cy="256" r="210" fill="#120a02" stroke="#e8a830" stroke-width="6" stroke-opacity="0.4"/>
  <!-- Stylised flame -->
  <path d="M256 110
    C256 110 300 175 308 225
    C316 270 288 298 272 328
    C300 295 318 258 296 210
    C328 255 322 318 288 356
    C316 322 332 278 308 232
    C334 280 326 348 280 382
    C308 348 320 306 292 272
    C314 308 306 358 256 390
    C206 358 198 308 220 272
    C192 306 204 348 232 382
    C186 348 178 280 204 232
    C180 278 196 322 224 356
    C190 318 184 255 216 210
    C194 258 212 295 240 328
    C224 298 196 270 204 225
    C212 175 256 110 256 110Z"
    fill="#e8a830" opacity="0.92"/>
  <!-- Inner flame highlight -->
  <path d="M256 175
    C256 175 278 210 282 238
    C286 262 268 278 260 296
    C274 278 282 258 268 230
    C284 256 280 292 262 312
    C274 292 280 268 266 244
    C278 266 274 304 256 322
    C238 304 234 266 246 244
    C232 268 228 292 240 312
    C222 292 218 256 234 230
    C220 258 228 278 242 296
    C234 278 216 262 220 238
    C224 210 256 175 256 175Z"
    fill="#f8d060" opacity="0.7"/>
  <!-- Bottom text line -->
  <text x="256" y="454" font-family="Georgia,serif" font-size="38" fill="#c8841080" text-anchor="middle" letter-spacing="6">FROM THIS WORLD</text>
</svg>
